<svg width="128" height="128" xmlns="http://www.w3.org/2000/svg" text-anchor="middle" font-family="monospace" font-size="24" font-weight="bold">
  <ellipse ry="64" rx="64" cy="64" cx="64" fill="#fff"/>
  <path d="m85.510405,42.489595l-12.90624,0l-12.90625,-12.90624l-30.11456,0l0,55.92705l25.81248,0l0,12.90624l43.02081,0l0,-43.02081l-12.90624,-12.90624zm-25.81249,-8.60416l8.60417,8.60416l-8.60417,0l0,-8.60416zm-25.81248,47.32289l0,-47.32289l21.5104,0l0,12.90624l12.90625,0l0,34.41665l-34.41665,0zm60.22913,12.90624l-34.41665,0l0,-8.60416l12.90625,0l0,-38.71873l8.60416,0l0,12.90624l12.90624,0l0,34.41665zm-8.60416,-38.71873l0,-8.60416l8.60416,8.60416l-8.60416,0z"/>
</svg>
